<svg xmlns="http://www.w3.org/2000/svg" aria-hidden="true" style="position:absolute;width:0;height:0;overflow:hidden"><defs><symbol id="burger-menu" viewBox="0 0 28 28"><path stroke-linecap="round" stroke-linejoin="round" stroke-width="2" d="M19.833 11.667H3.5M24.5 7h-21M24.5 16.333h-21M19.833 21H3.5"/></symbol><symbol id="email-black" viewBox="0 0 26 22"><path stroke="#111" stroke-linecap="round" stroke-linejoin="round" stroke-width="2" d="m24.083 18-7.75-7m-6.666 0-7.75 7M1.333 5.167l9.526 6.668c.771.54 1.157.81 1.577.914.37.093.758.093 1.128 0 .42-.104.806-.374 1.577-.914l9.526-6.668M6.933 20.333h12.134c1.96 0 2.94 0 3.689-.381a3.5 3.5 0 0 0 1.53-1.53c.38-.748.38-1.729.38-3.689V7.267c0-1.96 0-2.94-.38-3.69a3.5 3.5 0 0 0-1.53-1.529c-.75-.381-1.73-.381-3.69-.381H6.934c-1.96 0-2.94 0-3.689.381a3.5 3.5 0 0 0-1.53 1.53c-.38.748-.38 1.728-.38 3.689v7.466c0 1.96 0 2.94.38 3.69a3.5 3.5 0 0 0 1.53 1.529c.749.381 1.73.381 3.69.381Z"/></symbol><symbol id="email-white" viewBox="0 0 26 22"><path stroke="#F6F6F6" stroke-linecap="round" stroke-linejoin="round" stroke-width="2" d="m24.084 18-7.75-7m-6.667 0-7.75 7M1.333 5.167l9.526 6.668c.772.54 1.157.81 1.577.914.37.093.758.093 1.129 0 .419-.104.805-.374 1.576-.914l9.526-6.668M6.933 20.333h12.134c1.96 0 2.94 0 3.689-.381a3.5 3.5 0 0 0 1.53-1.53c.38-.748.38-1.729.38-3.689V7.267c0-1.96 0-2.94-.38-3.69a3.5 3.5 0 0 0-1.53-1.529c-.749-.381-1.729-.381-3.69-.381H6.935c-1.96 0-2.94 0-3.69.381a3.5 3.5 0 0 0-1.529 1.53c-.382.748-.382 1.728-.382 3.689v7.466c0 1.96 0 2.94.382 3.69a3.5 3.5 0 0 0 1.53 1.529c.748.381 1.728.381 3.689.381Z"/></symbol><symbol id="password-black" viewBox="0 0 24 24"><path stroke="#111" stroke-linecap="round" stroke-linejoin="round" stroke-width="2" d="M17.833 10.833v-3.5a5.833 5.833 0 1 0-11.666 0v3.5M7.1 22.5h9.8c1.96 0 2.94 0 3.689-.381a3.5 3.5 0 0 0 1.53-1.53c.381-.749.381-1.729.381-3.689v-.467c0-1.96 0-2.94-.381-3.689a3.5 3.5 0 0 0-1.53-1.53c-.749-.38-1.729-.38-3.689-.38H7.1c-1.96 0-2.94 0-3.689.38a3.5 3.5 0 0 0-1.53 1.53c-.381.75-.381 1.73-.381 3.69v.466c0 1.96 0 2.94.381 3.689a3.5 3.5 0 0 0 1.53 1.53c.749.381 1.729.381 3.689.381Z"/></symbol><symbol id="password-white" viewBox="0 0 24 24"><path stroke="#F6F6F6" stroke-linecap="round" stroke-linejoin="round" stroke-width="2" d="M17.833 10.833v-3.5a5.833 5.833 0 1 0-11.666 0v3.5M7.1 22.5h9.8c1.96 0 2.94 0 3.689-.381a3.5 3.5 0 0 0 1.53-1.53c.381-.749.381-1.729.381-3.689v-.467c0-1.96 0-2.94-.381-3.689a3.5 3.5 0 0 0-1.53-1.53c-.749-.38-1.729-.38-3.689-.38H7.1c-1.96 0-2.94 0-3.689.38a3.5 3.5 0 0 0-1.53 1.53c-.381.75-.381 1.73-.381 3.69v.466c0 1.96 0 2.94.381 3.689a3.5 3.5 0 0 0 1.53 1.53c.749.381 1.729.381 3.689.381Z"/></symbol><symbol id="right-arrow" viewBox="0 0 16 12"><path stroke="#EAC645" stroke-linecap="round" stroke-linejoin="round" stroke-width="2" d="M1.333 6h13.334m0 0-5-5m5 5-5 5"/></symbol><symbol id="scroll-up" viewBox="0 0 19 11"><path fill="#fff" d="m.375 8.7 8.4-8.425c.1-.1.208-.17.325-.212C9.217.021 9.342 0 9.475 0s.258.021.375.063a.872.872 0 0 1 .325.212L18.6 8.7c.233.233.35.525.35.875s-.125.65-.375.9a1.2 1.2 0 0 1-.875.375 1.2 1.2 0 0 1-.875-.375l-7.35-7.35-7.35 7.35c-.233.233-.52.35-.862.35-.342 0-.638-.125-.888-.375A1.2 1.2 0 0 1 0 9.575 1.2 1.2 0 0 1 .375 8.7Z"/></symbol><symbol id="scrolldown" viewBox="0 0 14 8"><path fill="#4F2EE8" d="M6.35 5.283a.917.917 0 0 0 1.3 0l4.2-4.207a.916.916 0 1 1 1.3 1.292L8.944 6.576a2.75 2.75 0 0 1-3.886 0L.849 2.368a.917.917 0 0 1 1.302-1.292l4.198 4.207Z"/></symbol><symbol id="shopping-bag" viewBox="0 0 14 18"><path fill="#111" d="M12.833 4.833h-2.5V4a3.333 3.333 0 1 0-6.666 0v.833h-2.5a.833.833 0 0 0-.834.834v9.166a2.5 2.5 0 0 0 2.5 2.5h8.334a2.5 2.5 0 0 0 2.5-2.5V5.667a.833.833 0 0 0-.834-.834ZM5.333 4a1.667 1.667 0 1 1 3.334 0v.833H5.333V4ZM12 14.833a.833.833 0 0 1-.833.834H2.833A.833.833 0 0 1 2 14.833V6.5h1.667v.833a.833.833 0 1 0 1.666 0V6.5h3.334v.833a.833.833 0 1 0 1.666 0V6.5H12v8.333Z"/></symbol><symbol id="trash" viewBox="0 0 34 34"><path stroke="#fff" stroke-linecap="round" stroke-linejoin="round" stroke-width="1.5" d="M14.75 10.25h4.5m-9 2.25h13.5m-1.5 0-.526 7.89c-.079 1.183-.118 1.775-.374 2.224a2.25 2.25 0 0 1-.974.91c-.465.226-1.058.226-2.244.226h-2.264c-1.186 0-1.78 0-2.244-.225a2.25 2.25 0 0 1-.974-.911c-.256-.449-.295-1.04-.374-2.224l-.526-7.89m3.75 3.375v3.75m3-3.75v3.75"/></symbol><symbol id="tryzub" viewBox="0 0 20 32"><path fill="#fff" d="M9.005 30.888a8.64 8.64 0 0 1-3.414-5.351H0V2.42c2.991 1.443 5.153 4.6 5.388 7.876l.845 6.493-.407-.045c-.893 0-1.676.812-1.676 1.608 0 .752.595 1.383 1.379 1.548l1.018.226c1.675-3.051 2.63-6.042 2.63-8.973 0-2.646-.36-5.291-.422-7.997 0-1.202.485-2.3 1.253-3.156.783.857 1.253 1.954 1.253 3.156 0 2.706-.423 5.351-.423 7.997 0 2.93.955 5.922 2.631 8.973l1.018-.226c.783-.165 1.378-.811 1.378-1.548 0-.811-.783-1.608-1.675-1.608l-.423.06.845-6.493C15.035 7.034 17.01 3.863 20 2.435v23.117h-5.576c-.422 2.18-1.613 4.148-3.414 5.35-.423.286-.783.632-1.018 1.098-.22-.466-.58-.812-.987-1.112ZM2.647 17.556c.235-.857.893-1.609 1.738-2.075l-.658-5.35a8.286 8.286 0 0 0-2.036-4.374V17.54h.956v.015Zm2.819 6.373c0-.812.125-1.548.298-2.3l-.784-.18c-1.143-.346-2.036-1.203-2.333-2.3H1.69v4.78h3.775Zm3.712 0c0-.977-.783-1.834-1.801-1.954-.173.63-.298 1.262-.298 1.954h2.099Zm0 1.623H7.314c.298 1.262.955 2.42 1.864 3.397v-3.397Zm2.63-5.005c-.72-1.263-1.377-2.585-1.8-3.968-.423 1.383-1.08 2.705-1.801 3.968.72.165 1.315.631 1.8 1.157.486-.526 1.082-.992 1.802-1.157Zm1.144 3.382c0-.692-.125-1.323-.297-1.954-1.018.12-1.801.977-1.801 1.954h2.098Zm-.235 1.623h-1.863v3.397c.908-.992 1.566-2.135 1.863-3.397Zm5.623-1.623v-4.78h-.956c-.297 1.097-1.206 1.954-2.333 2.3l-.783.18c.172.752.297 1.488.297 2.3h3.775Zm0-6.373v-11.8c-1.08 1.203-1.864 2.706-2.036 4.375l-.658 5.35c.846.466 1.504 1.203 1.738 2.075h.956Z"/></symbol><symbol id="user-dropdown" viewBox="0 0 15 8"><path fill="#fff" d="M.792.75h13.416l-6.03 6.817a.906.906 0 0 1-.678.318.906.906 0 0 1-.677-.318L.792.75Z"/></symbol><symbol id="violet-book" viewBox="0 0 44 40"><path fill="#4F2EE8" d="M42.94 9.641A20.85 20.85 0 0 0 40 8.39v24.677a20.115 20.115 0 0 0-7-1.272c-3.8 0-7.56 1.108-11 3.24v-24.82C18.76 8.308 15.02 7.18 11 7.18c-3.58 0-6.96.903-9.94 2.462C.4 9.969 0 10.687 0 11.446v24.78a2 2 0 0 0 2 2.03c.32 0 .64-.082.96-.246 2.42-1.292 5.14-2.113 8.04-2.113 4.14 0 7.96 1.683 11 4.103 3.04-2.42 6.86-4.103 11-4.103 2.9 0 5.62.821 8.04 2.134.32.164.64.246.96.246 1.04 0 2-.841 2-2.03v-24.8c0-.76-.4-1.478-1.06-1.806ZM18 33.067a20.115 20.115 0 0 0-7-1.272c-2.38 0-4.72.43-7 1.272V12.739a17.42 17.42 0 0 1 7-1.457c2.4 0 4.78.513 7 1.477v20.308ZM36 0 26 10.256v19.488l10-9.231V0Z"/></symbol><symbol id="x-button-black" viewBox="0 0 18 18"><path stroke-linecap="round" stroke-linejoin="round" stroke-width="3" d="M16 2 2 16M2 2l14 14"/></symbol><symbol id="x-button-white" viewBox="0 0 18 18"><path stroke="#F6F6F6" stroke-linecap="round" stroke-linejoin="round" stroke-width="3" d="M16 2 2 16M2 2l14 14"/></symbol><symbol id="user-icon" viewBox="0 0 13 18"><path fill="black" d="M.167 17.417a6.333 6.333 0 1 1 12.666 0H.167ZM6.5 10.292a4.749 4.749 0 0 1-4.75-4.75A4.749 4.749 0 0 1 6.5.792a4.749 4.749 0 0 1 4.75 4.75 4.749 4.749 0 0 1-4.75 4.75Z"/></symbol><symbol id="bag-white" viewBox="0 0 14 18"><path d="M12.833 4.83335H10.333V4.00002C10.333 3.11596 9.98181 2.26812 9.35669 1.643C8.73157 1.01788 7.88373 0.666687 6.99967 0.666687C6.11562 0.666687 5.26777 1.01788 4.64265 1.643C4.01753 2.26812 3.66634 3.11596 3.66634 4.00002V4.83335H1.16634C0.945327 4.83335 0.733366 4.92115 0.577086 5.07743C0.420805 5.23371 0.333008 5.44567 0.333008 5.66669V14.8334C0.333008 15.4964 0.5964 16.1323 1.06524 16.6011C1.53408 17.07 2.16997 17.3334 2.83301 17.3334H11.1663C11.8294 17.3334 12.4653 17.07 12.9341 16.6011C13.4029 16.1323 13.6663 15.4964 13.6663 14.8334V5.66669C13.6663 5.44567 13.5785 5.23371 13.4223 5.07743C13.266 4.92115 13.054 4.83335 12.833 4.83335ZM5.33301 4.00002C5.33301 3.55799 5.5086 3.13407 5.82116 2.82151C6.13372 2.50895 6.55764 2.33335 6.99967 2.33335C7.4417 2.33335 7.86562 2.50895 8.17818 2.82151C8.49074 3.13407 8.66634 3.55799 8.66634 4.00002V4.83335H5.33301V4.00002ZM11.9997 14.8334C11.9997 15.0544 11.9119 15.2663 11.7556 15.4226C11.5993 15.5789 11.3874 15.6667 11.1663 15.6667H2.83301C2.61199 15.6667 2.40003 15.5789 2.24375 15.4226C2.08747 15.2663 1.99967 15.0544 1.99967 14.8334V6.50002H3.66634V7.33335C3.66634 7.55437 3.75414 7.76633 3.91042 7.92261C4.0667 8.07889 4.27866 8.16669 4.49967 8.16669C4.72069 8.16669 4.93265 8.07889 5.08893 7.92261C5.24521 7.76633 5.33301 7.55437 5.33301 7.33335V6.50002H8.66634V7.33335C8.66634 7.55437 8.75414 7.76633 8.91042 7.92261C9.0667 8.07889 9.27866 8.16669 9.49967 8.16669C9.72069 8.16669 9.93265 8.07889 10.0889 7.92261C10.2452 7.76633 10.333 7.55437 10.333 7.33335V6.50002H11.9997V14.8334Z" fill="white"/></symbol></defs></svg>